<svg width="831" height="831" viewBox="0 0 831 831" fill="none" xmlns="http://www.w3.org/2000/svg">
<circle cx="415.5" cy="415.5" r="415.5" fill="#161616"/>
<path d="M531.8 677C411.8 500.6 370.4 429.8 399.8 363.8C451.4 285.8 604.4 167.6 624.2 152H616.4C598.4 166.4 550.4 203.6 501.8 247.4C458.6 286.4 426.8 320 406.4 347C358.4 405.2 331.4 471.8 365.6 551.6C381.8 588.2 413 633.2 440 677H531.8ZM416 152H414.2H347.6L277.4 482.6C263.6 548.6 252.8 599 236 677H304.4L345.8 482.6C374.6 347.6 400.4 227.6 416 152Z" fill="#F9F5EF"/>
</svg>
